# xmcd
#
# Track frame offsets: 
#        150
#        20410
#        41580
#        64887
#        87262
#        110949
#        133319
#        154538
#        177486
#        201548
#        218330
#        236673
#        258458
#        286845
#        311235
#
# Disc length: 4431 seconds
#
# Revision: 0
# Processed by: cddbd v1.5.2PL0 Copyright (c) Steve Scherf et al.
# Submitted via: ExactAudioCopy v0.99pb5
#
DISCID=e3114d0f
DTITLE=Khanh Ha and Vu Khanh - Gap Em Yeu Em
DYEAR=2003
DGENRE=Viet nam
TTITLE0=Gap Em - Vu Khanh.Flac
TTITLE1=Kiep Dam Me - Khanh Ha
TTITLE2=De Quen Con Tim - Khanh Ha
TTITLE3=Hay Yeu Nhu Chua Yeu Lan Nao - Vu Khanh
TTITLE4=Mot Mai Em Di - Vu Khanh
TTITLE5=Yeu - Khanh Ha
TTITLE6=Mua Dong Sap Den - Khanh Ha
TTITLE7=Khi Em Thoang Qua Doi Toi - Vu Khanh
TTITLE8=Mot Lan Nao Cho Toi Gap Lai Em - Vu Khanh
TTITLE9=Duong Xa Uot Mua - Khanh Ha
TTITLE10=Dem Buon - Khanh Ha
TTITLE11=Nho - Vu Khanh
TTITLE12=Yeu Em Vao Coi Chet - Vu Khanh
TTITLE13=Cuoi Cung Cho Mot Tinh Yeu - Khanh Ha
TTITLE14=Nghin Nam Van Khong Quen - Khanh Ha
EXTD=
EXTT0=
EXTT1=
EXTT2=
EXTT3=
EXTT4=
EXTT5=
EXTT6=
EXTT7=
EXTT8=
EXTT9=
EXTT10=
EXTT11=
EXTT12=
EXTT13=
EXTT14=
PLAYORDER=
